Coordinates
version=1
nRows=34
nColumns=38
inDegrees=no

Units are S.I. units (second, meters, Newtons, ...)
If the header above contains a line with 'inDegrees', this indicates whether rotational values are in degrees (yes) or radians (no).

endheader
time	pelvis_tilt	pelvis_list	pelvis_rotation	pelvis_tx	pelvis_ty	pelvis_tz	hip_flexion_r	hip_adduction_r	hip_rotation_r	knee_angle_r	ankle_angle_r	subtalar_angle_r	mtp_angle_r	hip_flexion_l	hip_adduction_l	hip_rotation_l	knee_angle_l	ankle_angle_l	subtalar_angle_l	mtp_angle_l	lumbar_extension	lumbar_bending	lumbar_rotation	arm_flex_r	arm_add_r	arm_rot_r	elbow_flex_r	pro_sup_r	wrist_flex_r	wrist_dev_r	arm_flex_l	arm_add_l	arm_rot_l	elbow_flex_l	pro_sup_l	wrist_flex_l	wrist_dev_l
0	1.06981	1.36922	-2.50503	0.405111	1.81479	0.894358	-0.0101295	-0.434192	-0.403526	1.25472	-0.403816	0	0	0.194985	0.307662	0.0110237	0.52607	-0.109803	0	0	-0.121634	-0.0988108	0.202277	-0.276722	-0.675186	-0.102877	1.62653	0.637929	0	0	0.624203	-0.636513	1.00944	1.1711	0.469836	0	0
0.01	1.07161	1.3757	-2.50466	0.406326	1.80634	0.896344	0.0310357	-0.431963	-0.37558	1.29732	-0.354599	0	0	0.184875	0.304084	0.0205971	0.520448	-0.108212	0	0	-0.105825	-0.0751036	0.23021	-0.318433	-0.669807	-0.145725	1.63986	0.637425	0	0	0.573732	-0.527351	0.874171	1.06665	0.534021	0	0
0.02	1.02832	1.37159	-2.45722	0.4071	1.79754	0.898974	0.0519834	-0.434421	-0.359566	1.33543	-0.311138	0	0	0.156875	0.301292	0.0228617	0.508743	-0.107877	0	0	-0.116234	-0.0710948	0.224588	-0.315954	-0.668457	-0.145772	1.63953	0.637471	0	0	0.574213	-0.523079	0.86963	1.06056	0.530451	0	0
0.03	0.943373	1.35478	-2.3673	0.407271	1.78909	0.902077	0.0541227	-0.441256	-0.350976	1.37236	-0.2446	0	0	0.111128	0.29929	0.0191191	0.492599	-0.11082	0	0	-0.155962	-0.0884065	0.180944	-0.258235	-0.672489	-0.0938356	1.62082	0.639142	0	0	0.645791	-0.64424	1.04006	1.16624	0.454092	0	0
0.04	0.916864	1.36212	-2.33557	0.408706	1.77975	0.905213	0.0845241	-0.433666	-0.337172	1.39637	-0.210402	0	0	0.092263	0.288935	0.0230762	0.475787	-0.115632	0	0	-0.143336	-0.0578661	0.209107	-0.30825	-0.66608	-0.143957	1.63764	0.641076	0	0	0.571339	-0.516852	0.855021	1.0522	0.538731	0	0
0.05	0.835445	1.34508	-2.24722	0.409053	1.77144	0.908323	0.0855623	-0.437121	-0.332563	1.42336	-0.16506	0	0	0.0466731	0.283895	0.022073	0.460314	-0.117546	0	0	-0.182985	-0.0716278	0.166006	-0.253033	-0.66998	-0.0944412	1.61819	0.643676	0	0	0.631264	-0.632664	1.00516	1.15661	0.473018	0	0
0.06	0.809825	1.3553	-2.21463	0.410766	1.76211	0.911071	0.118466	-0.427156	-0.322454	1.43703	-0.142379	0	0	0.0328259	0.272128	0.0290465	0.446774	-0.120718	0	0	-0.166426	-0.039319	0.191361	-0.301437	-0.664627	-0.141994	1.63338	0.646838	0	0	0.570281	-0.51267	0.847806	1.04663	0.545619	0	0
0.07	0.744434	1.33983	-2.14015	0.411341	1.75398	0.913706	0.12196	-0.428448	-0.321839	1.45304	-0.110652	0	0	-0.00713652	0.266214	0.0338474	0.436773	-0.113378	0	0	-0.202091	-0.0510378	0.146729	-0.246536	-0.66727	-0.0930164	1.61323	0.656717	0	0	0.630288	-0.630921	1.00235	1.15343	0.46855	0	0
0.08	0.695955	1.33522	-2.08474	0.412274	1.74544	0.916351	0.137892	-0.422475	-0.318675	1.45879	-0.0956136	0	0	-0.0354175	0.255375	0.0335686	0.422418	-0.119954	0	0	-0.214063	-0.0415825	0.13765	-0.241894	-0.670818	-0.0880483	1.6111	0.648997	0	0	0.634241	-0.63439	1.00883	1.15726	0.453248	0	0
0.09	0.658436	1.33342	-2.04009	0.413284	1.73699	0.918554	0.158509	-0.416705	-0.317103	1.46083	-0.0827157	0	0	-0.0572774	0.245304	0.0362811	0.414061	-0.121105	0	0	-0.22187	-0.0316832	0.128229	-0.23765	-0.671656	-0.0850394	1.60911	0.64744	0	0	0.644695	-0.640266	1.02878	1.15966	0.445802	0	0
0.1	0.611805	1.32665	-1.98694	0.414076	1.72871	0.921038	0.171145	-0.409587	-0.319217	1.45609	-0.0219566	0	0	-0.0865393	0.233424	0.0327824	0.397002	-0.12886	0	0	-0.235322	-0.0216173	0.120747	-0.234067	-0.672851	-0.0837223	1.60789	0.646539	0	0	0.65053	-0.641853	1.03639	1.16148	0.433635	0	0
0.11	0.576795	1.32328	-1.94516	0.414859	1.72055	0.922962	0.189521	-0.403151	-0.321805	1.44864	-0.0024999	0	0	-0.107981	0.222943	0.0347366	0.388414	-0.12822	0	0	-0.243855	-0.0122283	0.113619	-0.231863	-0.671991	-0.084721	1.60682	0.648359	0	0	0.650484	-0.640881	1.03266	1.16124	0.439217	0	0
0.12	0.544164	1.32092	-1.90627	0.415527	1.71243	0.924626	0.209105	-0.396164	-0.324952	1.43758	0.010208	0	0	-0.126945	0.212266	0.0369388	0.381587	-0.127087	0	0	-0.250823	-0.00256498	0.107425	-0.230508	-0.671139	-0.0865293	1.60657	0.649312	0	0	0.648565	-0.638595	1.02519	1.15982	0.447034	0	0
0.13	0.5232	1.31875	-1.87938	0.416061	1.7043	0.925869	0.23067	-0.392611	-0.327258	1.42702	0.0161932	0	0	-0.143115	0.204366	0.0387478	0.378155	-0.126359	0	0	-0.255416	0.00359624	0.103706	-0.232159	-0.670515	-0.0897602	1.60662	0.649336	0	0	0.641689	-0.631183	1.0066	1.15648	0.451219	0	0
0.14	0.504367	1.31756	-1.8552	0.416603	1.69622	0.926961	0.252907	-0.389338	-0.329148	1.41432	0.0144053	0	0	-0.15733	0.196973	0.0413565	0.376359	-0.12482	0	0	-0.25983	0.00983422	0.0972402	-0.229573	-0.671207	-0.0882413	1.60648	0.64775	0	0	0.65282	-0.637063	1.02629	1.15887	0.446965	0	0
0.15	0.477916	1.3121	-1.82338	0.416964	1.68823	0.928353	0.266296	-0.384824	-0.333872	1.39492	0.030906	0	0	-0.177344	0.187757	0.0417889	0.370479	-0.123499	0	0	-0.26831	0.0167947	0.0945823	-0.231371	-0.669411	-0.093638	1.6072	0.651524	0	0	0.646225	-0.62874	1.00659	1.15505	0.450853	0	0
0.16	0.459958	1.30853	-1.80057	0.417228	1.68021	0.929422	0.28194	-0.382697	-0.338645	1.37511	0.0316472	0	0	-0.193198	0.180485	0.0444569	0.368086	-0.12229	0	0	-0.274676	0.0213185	0.0896693	-0.229219	-0.670747	-0.0917989	1.60647	0.647611	0	0	0.649042	-0.630073	1.00847	1.15688	0.44965	0	0
0.17	0.446981	1.3071	-1.78232	0.417526	1.67216	0.930337	0.297722	-0.381453	-0.345276	1.3515	0.0430819	0	0	-0.205629	0.174436	0.0527513	0.368813	-0.110978	0	0	-0.278448	0.0260127	0.0833815	-0.227236	-0.663772	-0.0963546	1.60549	0.667102	0	0	0.660171	-0.635914	1.02886	1.15776	0.454596	0	0
0.18	0.435445	1.30106	-1.76786	0.417535	1.66413	0.931502	0.306923	-0.380558	-0.351063	1.32318	0.0449889	0	0	-0.224381	0.16854	0.0504321	0.360661	-0.123466	0	0	-0.285994	0.0285971	0.0825288	-0.227805	-0.670964	-0.0924349	1.60649	0.646986	0	0	0.652238	-0.627955	1.0083	1.15402	0.4521	0	0
0.19	0.430458	1.29821	-1.76027	0.417533	1.65601	0.932369	0.31819	-0.380474	-0.356725	1.29147	0.0456633	0	0	-0.238022	0.164263	0.0515684	0.357556	-0.123724	0	0	-0.290034	0.0300454	0.0799239	-0.226803	-0.670967	-0.0918762	1.606	0.646481	0	0	0.65257	-0.627129	1.00785	1.15285	0.451977	0	0
0.2	0.427031	1.29496	-1.75526	0.417373	1.64778	0.933175	0.326964	-0.380872	-0.363234	1.25669	0.045329	0	0	-0.251787	0.160249	0.0503582	0.354724	-0.123811	0	0	-0.294554	0.0301102	0.0775367	-0.224914	-0.671023	-0.0901415	1.60501	0.646108	0	0	0.652311	-0.628525	1.00783	1.15439	0.451363	0	0
0.21	0.427905	1.2948	-1.75531	0.417197	1.63941	0.933644	0.337279	-0.380567	-0.368786	1.21865	0.0477639	0	0	-0.261635	0.157306	0.0498327	0.353842	-0.123072	0	0	-0.294417	0.0302657	0.0773517	-0.226012	-0.670335	-0.0910171	1.60448	0.647799	0	0	0.650434	-0.62594	1.0064	1.15097	0.452007	0	0
0.22	0.426084	1.29556	-1.75396	0.417008	1.63098	0.933955	0.345685	-0.376931	-0.37291	1.17431	0.0364812	0	0	-0.270874	0.153598	0.0468849	0.352448	-0.122952	0	0	-0.294011	0.0313178	0.0763063	-0.224324	-0.672815	-0.0872139	1.60386	0.645165	0	0	0.657607	-0.631291	1.02635	1.15198	0.445962	0	0
0.23	0.431125	1.29728	-1.75983	0.416658	1.62239	0.933826	0.354713	-0.374491	-0.376729	1.13029	0.0301813	0	0	-0.278697	0.15202	0.0459628	0.352439	-0.120898	0	0	-0.290826	0.0296965	0.0785757	-0.227315	-0.673179	-0.0882659	1.60346	0.644659	0	0	0.64309	-0.623673	1.00194	1.14847	0.453155	0	0
0.24	0.436678	1.30096	-1.7675	0.416225	1.61369	0.933462	0.363946	-0.369665	-0.378015	1.08238	0.0190147	0	0	-0.284689	0.150602	0.0458076	0.352387	-0.117842	0	0	-0.285616	0.0285214	0.0808904	-0.22906	-0.67422	-0.0875318	1.60301	0.644387	0	0	0.63886	-0.622345	1.0008	1.14658	0.454474	0	0
0.25	0.445499	1.30566	-1.77919	0.415745	1.60487	0.932854	0.372609	-0.364153	-0.377374	1.0319	0.00562466	0	0	-0.290067	0.15001	0.046409	0.351584	-0.114108	0	0	-0.278805	0.0267683	0.0842501	-0.231697	-0.675109	-0.0876243	1.60288	0.644498	0	0	0.633173	-0.619939	0.997605	1.14392	0.453982	0	0
0.26	0.456274	1.31006	-1.79339	0.415175	1.59601	0.932104	0.378549	-0.357824	-0.375143	0.978384	-0.00525915	0	0	-0.296007	0.149986	0.046309	0.350361	-0.109314	0	0	-0.272763	0.0236041	0.086961	-0.232588	-0.674753	-0.0870632	1.60181	0.647738	0	0	0.626952	-0.620782	0.9942	1.14546	0.455406	0	0
0.27	0.47036	1.31599	-1.81088	0.414609	1.58702	0.931141	0.383199	-0.350815	-0.371714	0.921694	-0.0089635	0	0	-0.299992	0.150732	0.0470876	0.350319	-0.101166	0	0	-0.264062	0.0209179	0.0910199	-0.235706	-0.672338	-0.0896829	1.60084	0.656302	0	0	0.619505	-0.617988	0.988251	1.14238	0.465169	0	0
0.28	0.478494	1.31884	-1.82374	0.413878	1.57808	0.930336	0.37951	-0.340375	-0.364975	0.856995	-0.0138846	0	0	-0.308848	0.149815	0.0412555	0.344906	-0.105623	0	0	-0.259359	0.0188045	0.0965564	-0.237012	-0.680489	-0.0832549	1.60053	0.638967	0	0	0.617724	-0.617089	0.992532	1.14148	0.453559	0	0
0.29	0.492172	1.32346	-1.84131	0.413164	1.56908	0.92919	0.375045	-0.330478	-0.356218	0.789662	-0.0167376	0	0	-0.315182	0.14972	0.0393846	0.341971	-0.103281	0	0	-0.252923	0.01544	0.100201	-0.237447	-0.681419	-0.0815074	1.59905	0.639017	0	0	0.612496	-0.617527	0.990761	1.14276	0.453666	0	0
0.3	0.487182	1.33585	-1.84669	0.411725	1.56111	0.928128	0.318574	-0.284734	-0.191161	0.546585	-0.0501401	0	0	-0.310194	0.144985	0.035607	0.346068	-0.0951798	0	0	-0.242531	0.0196143	0.111983	-0.236588	-0.682777	-0.0817548	1.59589	0.642108	0	0	0.605145	-0.610133	0.982593	1.13548	0.455784	0	0
0.31	0.487785	1.33725	-1.85043	0.410858	1.55212	0.927279	0.284368	-0.267467	-0.159647	0.428484	-0.0824542	0	0	-0.321006	0.141258	0.0289581	0.340612	-0.0954819	0	0	-0.240858	0.0197263	0.116584	-0.238104	-0.684496	-0.0818631	1.59574	0.641374	0	0	0.601059	-0.607806	0.979689	1.13347	0.457508	0	0
0.32	0.484701	1.33798	-1.84974	0.409781	1.54315	0.926395	0.228577	-0.246517	-0.0946547	0.262774	-0.129169	0	0	-0.332899	0.135809	0.0237926	0.335642	-0.0942884	0	0	-0.240689	0.0199765	0.120359	-0.238111	-0.68471	-0.0816609	1.59439	0.642218	0	0	0.598409	-0.607077	0.97837	1.13275	0.459426	0	0
0.33	0.493368	1.34083	-1.85929	0.40853	1.53383	0.924895	0.133674	-0.236393	0.0542457	0	-0.220961	0	0	-0.341497	0.131208	0.0197405	0.332884	-0.0910674	0	0	-0.23643	0.0177855	0.123892	-0.240295	-0.682602	-0.0831924	1.5931	0.64361	0	0	0.597243	-0.605738	0.979335	1.13053	0.458463	0	0
